<svg
   xmlns:dc="http://purl.org/dc/elements/1.1/"
   xmlns:cc="http://creativecommons.org/ns#"
   xmlns:rdf="http://www.w3.org/1999/02/22-rdf-syntax-ns#"
   xmlns:svg="http://www.w3.org/2000/svg"
   xmlns="http://www.w3.org/2000/svg"
   version="1.1"
   width="500" height="500"
   style="overflow:visible"
   xml:space="preserve">
<linearGradient id="a" x1="0" y1=".5" x2="1" y2=".5">
<stop offset="0%" stop-color="#ffc04a"/>
<stop offset="100%" stop-color="tomato"/>
</linearGradient>
<path d="M96.897 37.513a3.479 3.479 0 1 0-3.478-3.479c0 .422.079.825.217 1.2l-10.153 8.649-12.864-7.567c.073-.297.116-.607.116-.927a3.878 3.878 0 0 0-3.878-3.878 3.85 3.85 0 0 0-2.314.772L52.92 23.054a2.86 2.86 0 0 0 .086-.684 2.86 2.86 0 1 0-4.998 1.898l-5.835 12.488a4.676 4.676 0 0 0-.8-.074c-.86 0-1.662.239-2.351.647l-15.438-6.915c.036-.225.06-.454.06-.689a4.309 4.309 0 1 0-.963 2.713l14.682 6.576a4.598 4.598 0 0 0-.607 2.284c0 .852.293 1.605.694 2.29l-8.233 8.237a6.847 6.847 0 0 0-4.003-1.294c-2.642 0-4.915 1.501-6.082 3.684l-.096-.032-.005.035-11.478-5.216a3.6 3.6 0 1 0-3.576 3.192 3.584 3.584 0 0 0 2.657-1.177l11.723 5.329c-.005.013-.009.025-.015.037l.056.019c-.054.348-.108.694-.108 1.055a6.9 6.9 0 0 0 2.115 4.975l-.017.013.012.014-5.973 8.802a2.677 2.677 0 1 0 1.82 1.264l5.364-7.904.71-.877a6.88 6.88 0 0 0 2.894.641 6.914 6.914 0 0 0 4.883-2.016l6.993 4.991c-.199.514-.334 1.06-.334 1.641a4.614 4.614 0 0 0 9.088 1.135l15.916-4.923a5.786 5.786 0 0 0 5.099 3.05 5.757 5.757 0 0 0 3.403-1.114l7.12 6.611a3.14 3.14 0 1 0 3.081-2.542 3.12 3.12 0 0 0-1.883.631l-6.811-6.323c.552-.887.893-1.93.893-3.05 0-2.815-1.661-5.16-4.661-5.677V39.104c1-.172 1.082-.478 1.513-.878l13.332 7.848 11.179 15.655c-.092.23-.146.481-.146.745a2.035 2.035 0 1 0 4.072 0 2.038 2.038 0 0 0-2.038-2.037c-.03 0-.06.003-.09.005l-10.73-15.02 9.931-8.459c.54.347 1.182.55 1.872.55zM61.07 62.474c0 .21.013.416.035.62L45.83 67.818a4.613 4.613 0 0 0-4.458-3.435c-1.123 0-2.114.451-2.913 1.113l-7.038-5.022c.447-.92.717-1.93.717-3.017a6.88 6.88 0 0 0-1.29-3.999l8.233-8.237c.686.401 1.438.694 2.291.694a4.605 4.605 0 0 0 3.897-2.147l17.222 14.914a5.768 5.768 0 0 0-1.421 3.792zM66 56.797c-1 .1-1.135.273-1.596.502l-18.36-15.846c.002-.052-.023-.102-.023-.154a4.617 4.617 0 0 0-1.806-3.646l5.799-12.428c.046.002.088.007.134.007.53 0 1.023-.147 1.449-.399l11.621 9.229c-.151.415-.113.861-.113 1.328 0 1.757.895 3.238 2.895 3.715v17.692z" transform="matrix(2.55717 0 0 2.55717 127.181 78.594)" fill="url('#a')"/>
<path font-size="100" font-family="Montserrat" fill="#3a3a3a" font-weight="700" d="M192.45 334.7h29.19v9.96h-41.524v-53.628h40.528v9.96H192.45v11.644h24.899v9.653h-24.9V334.7Zm38.23 9.96v-56.846h11.951v56.846H230.68Zm52.479-41.217h11.491l-18.616 43.745q-2.835 7.125-7.01 10.036-4.175 2.911-10.074 2.911-3.218 0-6.36-.996-3.14-.996-5.132-2.758l4.367-8.503q1.379 1.225 3.179 1.915 1.8.69 3.562.69 2.452 0 3.984-1.188t2.758-3.946l.154-.383-17.851-41.523h12.334l11.569 27.963 11.645-27.963Zm29.648 41.83q-5.133 0-10.036-1.264t-7.814-3.18l3.984-8.58q2.758 1.762 6.665 2.873 3.907 1.11 7.661 1.11 7.585 0 7.585-3.753 0-1.762-2.069-2.529-2.068-.766-6.359-1.302-5.056-.766-8.35-1.762-3.295-.996-5.708-3.524-2.413-2.528-2.413-7.202 0-3.907 2.26-6.933t6.588-4.712q4.329-1.685 10.228-1.685 4.367 0 8.695.958 4.329.957 7.164 2.643l-3.984 8.504q-5.44-3.065-11.875-3.065-3.83 0-5.746 1.073-1.915 1.072-1.915 2.758 0 1.915 2.068 2.681 2.069.766 6.589 1.456 5.056.842 8.274 1.8 3.218.958 5.593 3.486 2.375 2.528 2.375 7.048 0 3.83-2.299 6.819-2.298 2.987-6.703 4.635-4.405 1.647-10.458 1.647Z"/>
</svg>
